<svg width="40" height="46" viewBox="0 0 40 46" fill="none" xmlns="http://www.w3.org/2000/svg">
<g clip-path="url(#clip0)">
<rect width="40" height="46" fill="white"/>
<path d="M1.9707 27V1.40625H10.3379C13.1152 1.40625 15.2012 1.98047 16.5957 3.12891C18.002 4.27734 18.7051 5.97656 18.7051 8.22656C18.7051 9.42188 18.3652 10.4824 17.6855 11.4082C17.0059 12.3223 16.0801 13.0312 14.9082 13.5352C16.291 13.9219 17.3809 14.6602 18.1777 15.75C18.9863 16.8281 19.3906 18.1172 19.3906 19.6172C19.3906 21.9141 18.6465 23.7188 17.1582 25.0312C15.6699 26.3438 13.5664 27 10.8477 27H1.9707ZM5.3457 15.0293V24.2402H10.918C12.4883 24.2402 13.7246 23.8359 14.627 23.0273C15.541 22.207 15.998 21.082 15.998 19.6523C15.998 16.5703 14.3223 15.0293 10.9707 15.0293H5.3457ZM5.3457 12.3223H10.4434C11.9199 12.3223 13.0977 11.9531 13.9766 11.2148C14.8672 10.4766 15.3125 9.47461 15.3125 8.20898C15.3125 6.80273 14.9023 5.7832 14.082 5.15039C13.2617 4.50586 12.0137 4.18359 10.3379 4.18359H5.3457V12.3223Z" fill="black"/>
<path d="M5.36328 35.2402H17.4922V38H1.9707V12.4062H5.36328V35.2402Z" fill="black"/>
<path d="M11.5996 28.3145C11.5996 26.4512 11.9629 24.7754 12.6895 23.2871C13.4277 21.7988 14.4473 20.6504 15.748 19.8418C17.0605 19.0332 18.5547 18.6289 20.2305 18.6289C22.8203 18.6289 24.9121 19.5254 26.5059 21.3184C28.1113 23.1113 28.9141 25.4961 28.9141 28.4727V28.7012C28.9141 30.5527 28.5566 32.2168 27.8418 33.6934C27.1387 35.1582 26.125 36.3008 24.8008 37.1211C23.4883 37.9414 21.9766 38.3516 20.2656 38.3516C17.6875 38.3516 15.5957 37.4551 13.9902 35.6621C12.3965 33.8691 11.5996 31.4961 11.5996 28.543V28.3145ZM14.8691 28.7012C14.8691 30.8105 15.3555 32.5039 16.3281 33.7812C17.3125 35.0586 18.625 35.6973 20.2656 35.6973C21.918 35.6973 23.2305 35.0527 24.2031 33.7637C25.1758 32.4629 25.6621 30.6465 25.6621 28.3145C25.6621 26.2285 25.1641 24.541 24.168 23.252C23.1836 21.9512 21.8711 21.3008 20.2305 21.3008C18.625 21.3008 17.3301 21.9395 16.3457 23.2168C15.3613 24.4941 14.8691 26.3223 14.8691 28.7012Z" fill="black"/>
<path d="M22.6875 28.332C22.6875 25.3672 23.373 23.0117 24.7441 21.2656C26.1152 19.5078 27.9316 18.6289 30.1934 18.6289C32.5137 18.6289 34.3242 19.4492 35.625 21.0898L35.7832 18.9805H38.7539V37.543C38.7539 40.0039 38.0215 41.9434 36.5566 43.3613C35.1035 44.7793 33.1465 45.4883 30.6855 45.4883C29.3145 45.4883 27.9727 45.1953 26.6602 44.6094C25.3477 44.0234 24.3457 43.2207 23.6543 42.2012L25.3418 40.25C26.7363 41.9727 28.4414 42.834 30.457 42.834C32.0391 42.834 33.2695 42.3887 34.1484 41.498C35.0391 40.6074 35.4844 39.3535 35.4844 37.7363V36.1016C34.1836 37.6016 32.4082 38.3516 30.1582 38.3516C27.9316 38.3516 26.127 37.4551 24.7441 35.6621C23.373 33.8691 22.6875 31.4258 22.6875 28.332ZM25.957 28.7012C25.957 30.8457 26.3965 32.5332 27.2754 33.7637C28.1543 34.9824 29.3848 35.5918 30.9668 35.5918C33.0176 35.5918 34.5234 34.6602 35.4844 32.7969V24.1133C34.4883 22.2969 32.9941 21.3887 31.002 21.3887C29.4199 21.3887 28.1836 22.0039 27.293 23.2344C26.4023 24.4648 25.957 26.2871 25.957 28.7012Z" fill="black"/>
</g>
<defs>
<clipPath id="clip0">
<rect width="40" height="46" fill="white"/>
</clipPath>
</defs>
</svg>
